<svg width="24" height="24" viewBox="0 0 24 24" fill="none" xmlns="http://www.w3.org/2000/svg">
<path d="M19.2498 5.99957C19.2497 5.93343 19.2234 5.86959 19.1766 5.82281C19.1297 5.77607 19.066 5.74957 18.9998 5.74957C16.76 5.74957 14.1049 4.44934 12.2723 2.84918V2.85016C12.1963 2.78532 12.0997 2.74957 11.9998 2.74957C11.8999 2.74957 11.8034 2.78532 11.7274 2.85016C9.90537 4.43956 7.24008 5.74957 4.99982 5.74957C4.93362 5.74957 4.86992 5.77607 4.82306 5.82281C4.77628 5.86959 4.74994 5.93343 4.74982 5.99957V12.9996C4.74982 15.3014 5.54655 16.9893 6.80743 18.2808C7.92872 19.4292 9.44334 20.2896 11.1649 20.9566L11.9149 21.231L11.9315 21.2369C11.9846 21.2567 12.0427 21.2574 12.0965 21.2398C14.1213 20.5337 15.9133 19.5959 17.1932 18.2828C18.4533 16.9898 19.2498 15.3013 19.2498 12.9996V5.99957ZM14.4695 9.4693C14.7624 9.17671 15.2373 9.17671 15.5301 9.4693C15.823 9.76219 15.823 10.2379 15.5301 10.5308L11.5301 14.5308C11.2373 14.8234 10.7624 14.8234 10.4695 14.5308L8.46954 12.5308C8.17665 12.2379 8.17665 11.7622 8.46954 11.4693C8.76238 11.1767 9.23725 11.1767 9.53009 11.4693L10.9998 12.939L14.4695 9.4693ZM20.7498 12.9996C20.7498 15.6977 19.7962 17.7601 18.2664 19.3297C16.7571 20.8781 14.7202 21.9141 12.5867 22.6578L12.5809 22.6607C12.2051 22.788 11.7974 22.7827 11.4246 22.648C9.28561 21.9093 7.24509 20.8761 5.73419 19.3287C4.20288 17.7602 3.24982 15.6975 3.24982 12.9996V5.99957C3.24994 5.53561 3.43443 5.09035 3.76251 4.76227C4.09068 4.43422 4.53579 4.24957 4.99982 4.24957C6.75697 4.24957 9.08806 3.16348 10.7459 1.71539L10.7527 1.70953C11.1004 1.41261 11.5426 1.24957 11.9998 1.24957C12.3999 1.24957 12.7883 1.37482 13.1121 1.60504L13.2469 1.70953L13.2537 1.71539C14.9209 3.17288 17.242 4.24957 18.9998 4.24957C19.4638 4.24957 19.909 4.43422 20.2371 4.76227C20.5652 5.09035 20.7497 5.53561 20.7498 5.99957V12.9996Z" fill="#151515"/>
</svg>
